<svg viewBox="0 0 403 282" fill="none" xmlns="http://www.w3.org/2000/svg">
<path d="M377.403 80.3788L377.642 260.493C377.643 263.837 376.318 267.044 373.957 269.412C371.596 271.78 368.392 273.115 365.049 273.123L290.231 273.233C311.293 233.833 323.219 171.818 323.149 124.016C323.13 105.151 321.213 86.3358 317.428 67.8548L364.773 67.7854C368.116 67.7843 371.324 69.1096 373.692 71.4705C376.06 73.8314 377.394 77.0351 377.403 80.3788Z" fill="#2374AB"/>
<path d="M267.766 55.7612L134.427 55.2383L147.393 12.1011C148.428 8.71213 150.521 5.74333 153.364 3.62903C156.208 1.51473 159.653 0.3659 163.197 0.350586H163.259L239.365 0.649414C242.919 0.678912 246.37 1.84862 249.21 3.98636C252.049 6.1241 254.128 9.11695 255.139 12.5244L267.766 55.7612Z" fill="white"/>
<path d="M342.204 41C338.491 41 334.93 42.475 332.305 45.1005C329.679 47.726 328.204 51.287 328.204 55H356.204C356.204 51.287 354.729 47.726 352.104 45.1005C349.478 42.475 345.917 41 342.204 41Z" fill="#2374AB"/>
<path d="M385.204 282H17.2043C12.6972 281.995 8.37608 280.202 5.18906 277.015C2.00204 273.828 0.209386 269.507 0.204315 265V71C0.209389 66.4929 2.00204 62.1718 5.18906 58.9848C8.37608 55.7978 12.6972 54.0051 17.2043 54H385.204C389.711 54.0051 394.033 55.7978 397.22 58.9848C400.407 62.1718 402.199 66.4929 402.204 71V265C402.199 269.507 400.407 273.828 397.22 277.015C394.033 280.202 389.711 281.995 385.204 282ZM17.2043 56C13.2274 56.0045 9.4147 57.5863 6.60263 60.3984C3.79056 63.2104 2.20881 67.0231 2.20432 71V265C2.20881 268.977 3.79056 272.79 6.60263 275.602C9.4147 278.414 13.2274 279.995 17.2043 280H385.204C389.181 279.995 392.994 278.414 395.806 275.602C398.618 272.79 400.2 268.977 400.204 265V71C400.2 67.0231 398.618 63.2104 395.806 60.3984C392.994 57.5863 389.181 56.0045 385.204 56H17.2043Z" fill="white"/>
<path d="M217.204 39.5H185.204C182.95 39.5 180.788 38.6045 179.194 37.0104C177.6 35.4163 176.704 33.2543 176.704 31C176.704 28.7457 177.6 26.5837 179.194 24.9896C180.788 23.3955 182.95 22.5 185.204 22.5H217.204C219.459 22.5 221.621 23.3955 223.215 24.9896C224.809 26.5837 225.704 28.7457 225.704 31C225.704 33.2543 224.809 35.4163 223.215 37.0104C221.621 38.6045 219.459 39.5 217.204 39.5Z" fill="white"/>
<path d="M201.204 244C186.173 244 171.479 239.543 158.981 231.192C146.483 222.841 136.742 210.971 130.989 197.084C125.237 183.197 123.732 167.916 126.665 153.173C129.597 138.431 136.835 124.889 147.464 114.26C158.093 103.631 171.635 96.3928 186.377 93.4604C201.12 90.5279 216.401 92.0329 230.288 97.7852C244.175 103.537 256.045 113.279 264.396 125.777C272.747 138.275 277.204 152.969 277.204 168C277.182 188.149 269.167 207.467 254.919 221.715C240.671 235.963 221.354 243.977 201.204 244ZM201.204 94C186.569 94 172.261 98.3401 160.092 106.471C147.923 114.603 138.438 126.16 132.837 139.681C127.236 153.203 125.771 168.082 128.626 182.437C131.482 196.791 138.529 209.977 148.878 220.326C159.227 230.675 172.413 237.723 186.768 240.578C201.122 243.433 216.001 241.968 229.523 236.367C243.045 230.766 254.602 221.281 262.733 209.112C270.864 196.943 275.204 182.636 275.204 168C275.182 148.381 267.379 129.572 253.506 115.699C239.633 101.826 220.824 94.0222 201.204 94Z" fill="white"/>
<path d="M201.204 218C191.315 218 181.648 215.068 173.426 209.573C165.203 204.079 158.795 196.27 155.01 187.134C151.226 177.998 150.236 167.945 152.165 158.245C154.094 148.546 158.856 139.637 165.849 132.645C172.842 125.652 181.751 120.89 191.45 118.961C201.149 117.032 211.202 118.022 220.338 121.806C229.475 125.59 237.284 131.999 242.778 140.222C248.272 148.444 251.204 158.111 251.204 168C251.189 181.256 245.917 193.965 236.543 203.339C227.17 212.712 214.461 217.985 201.204 218ZM201.204 120C191.711 120 182.43 122.815 174.537 128.089C166.643 133.364 160.491 140.86 156.858 149.631C153.225 158.402 152.275 168.053 154.127 177.364C155.979 186.675 160.55 195.228 167.263 201.941C173.976 208.654 182.529 213.226 191.84 215.078C201.151 216.93 210.802 215.979 219.573 212.346C228.344 208.713 235.841 202.561 241.115 194.667C246.389 186.774 249.204 177.494 249.204 168C249.19 155.274 244.128 143.073 235.13 134.075C226.131 125.076 213.93 120.014 201.204 120Z" fill="white"/>
<path d="M201.204 206C222.191 206 239.204 188.987 239.204 168C239.204 147.013 222.191 130 201.204 130C180.217 130 163.204 147.013 163.204 168C163.204 188.987 180.217 206 201.204 206Z" fill="#CCCCCC"/>
<path d="M178.204 168C178.205 161.976 180.381 156.156 184.331 151.608C188.281 147.061 193.74 144.093 199.704 143.249C196.159 142.745 192.548 143.008 189.114 144.021C185.679 145.034 182.503 146.772 179.799 149.119C177.094 151.466 174.926 154.366 173.44 157.623C171.954 160.881 171.185 164.42 171.185 168C171.185 171.58 171.954 175.119 173.44 178.377C174.926 181.634 177.094 184.534 179.799 186.881C182.503 189.228 185.679 190.966 189.114 191.979C192.548 192.992 196.159 193.255 199.704 192.751C193.74 191.907 188.281 188.939 184.331 184.392C180.381 179.844 178.205 174.023 178.204 168Z" fill="white"/>
<path d="M367.204 56H317.204V55C317.204 48.3696 319.838 42.0107 324.527 37.3223C329.215 32.6339 335.574 30 342.204 30C348.835 30 355.194 32.6339 359.882 37.3223C364.57 42.0107 367.204 48.3696 367.204 55V56ZM319.226 54H365.183C364.925 48.0788 362.391 42.4857 358.11 38.387C353.829 34.2883 348.131 32.0004 342.204 32.0004C336.277 32.0004 330.579 34.2883 326.298 38.387C322.017 42.4857 319.484 48.0788 319.226 54Z" fill="white"/>
<path d="M25.2043 84C23.2265 84 21.2931 83.4135 19.6486 82.3147C18.0041 81.2159 16.7224 79.6541 15.9655 77.8268C15.2086 75.9996 15.0106 73.9889 15.3965 72.0491C15.7823 70.1093 16.7347 68.3275 18.1332 66.929C19.5318 65.5304 21.3136 64.578 23.2534 64.1921C25.1932 63.8063 27.2039 64.0044 29.0311 64.7612C30.8584 65.5181 32.4202 66.7998 33.519 68.4443C34.6178 70.0888 35.2043 72.0222 35.2043 74C35.2013 76.6513 34.1468 79.193 32.2721 81.0678C30.3974 82.9425 27.8556 83.997 25.2043 84ZM25.2043 66C23.6221 66 22.0753 66.4692 20.7598 67.3483C19.4442 68.2273 18.4188 69.4767 17.8133 70.9385C17.2078 72.4004 17.0493 74.0089 17.358 75.5607C17.6667 77.1126 18.4287 78.538 19.5475 79.6569C20.6663 80.7757 22.0918 81.5376 23.6436 81.8463C25.1955 82.155 26.804 81.9966 28.2658 81.3911C29.7276 80.7856 30.977 79.7602 31.8561 78.4446C32.7351 77.129 33.2043 75.5823 33.2043 74C33.2019 71.879 32.3583 69.8456 30.8585 68.3458C29.3587 66.8461 27.3253 66.0024 25.2043 66Z" fill="white"/>
<path d="M25.2043 79C27.9657 79 30.2043 76.7614 30.2043 74C30.2043 71.2386 27.9657 69 25.2043 69C22.4429 69 20.2043 71.2386 20.2043 74C20.2043 76.7614 22.4429 79 25.2043 79Z" fill="#2374AB"/>
<path d="M51.2043 79C53.9657 79 56.2043 76.7614 56.2043 74C56.2043 71.2386 53.9657 69 51.2043 69C48.4429 69 46.2043 71.2386 46.2043 74C46.2043 76.7614 48.4429 79 51.2043 79Z" fill="#CCCCCC"/>
<path d="M77.2043 79C79.9657 79 82.2043 76.7614 82.2043 74C82.2043 71.2386 79.9657 69 77.2043 69C74.4429 69 72.2043 71.2386 72.2043 74C72.2043 76.7614 74.4429 79 77.2043 79Z" fill="#CCCCCC"/>
<path d="M51.2043 84C49.2265 84 47.2931 83.4135 45.6486 82.3147C44.0041 81.2159 42.7224 79.6541 41.9655 77.8268C41.2086 75.9996 41.0106 73.9889 41.3965 72.0491C41.7823 70.1093 42.7347 68.3275 44.1332 66.929C45.5318 65.5304 47.3136 64.578 49.2534 64.1921C51.1932 63.8063 53.2039 64.0044 55.0311 64.7612C56.8584 65.5181 58.4202 66.7998 59.519 68.4443C60.6178 70.0888 61.2043 72.0222 61.2043 74C61.2013 76.6513 60.1468 79.193 58.2721 81.0678C56.3974 82.9425 53.8556 83.997 51.2043 84ZM51.2043 66C49.6221 66 48.0753 66.4692 46.7598 67.3483C45.4442 68.2273 44.4188 69.4767 43.8133 70.9385C43.2078 72.4004 43.0493 74.0089 43.358 75.5607C43.6667 77.1126 44.4287 78.538 45.5475 79.6569C46.6663 80.7757 48.0918 81.5376 49.6436 81.8463C51.1955 82.155 52.804 81.9966 54.2658 81.3911C55.7276 80.7856 56.977 79.7602 57.8561 78.4446C58.7351 77.129 59.2043 75.5823 59.2043 74C59.2019 71.879 58.3583 69.8456 56.8585 68.3458C55.3587 66.8461 53.3253 66.0024 51.2043 66Z" fill="white"/>
<path d="M77.2043 84C75.2265 84 73.2931 83.4135 71.6486 82.3147C70.0041 81.2159 68.7224 79.6541 67.9655 77.8268C67.2086 75.9996 67.0106 73.9889 67.3965 72.0491C67.7823 70.1093 68.7347 68.3275 70.1332 66.929C71.5318 65.5304 73.3136 64.578 75.2534 64.1921C77.1932 63.8063 79.2039 64.0044 81.0311 64.7612C82.8584 65.5181 84.4202 66.7998 85.519 68.4443C86.6178 70.0888 87.2043 72.0222 87.2043 74C87.2013 76.6513 86.1468 79.193 84.2721 81.0678C82.3974 82.9425 79.8556 83.997 77.2043 84ZM77.2043 66C75.6221 66 74.0753 66.4692 72.7598 67.3483C71.4442 68.2273 70.4188 69.4767 69.8133 70.9385C69.2078 72.4004 69.0493 74.0089 69.358 75.5607C69.6667 77.1126 70.4287 78.538 71.5475 79.6569C72.6663 80.7757 74.0918 81.5376 75.6436 81.8463C77.1955 82.155 78.804 81.9966 80.2658 81.3911C81.7276 80.7856 82.977 79.7602 83.8561 78.4446C84.7351 77.129 85.2043 75.5823 85.2043 74C85.2019 71.879 84.3583 69.8456 82.8585 68.3458C81.3587 66.8461 79.3253 66.0024 77.2043 66Z" fill="white"/>
<path d="M131.204 140.874H1.20428V142.874H131.204V140.874Z" fill="white"/>
<path d="M127.976 181.126H1.20428V183.126H127.976V181.126Z" fill="white"/>
<path d="M401.204 140.874H271.204V142.874H401.204V140.874Z" fill="white"/>
<path d="M400.976 181.126H274.204V183.126H400.976V181.126Z" fill="white"/>
</svg>
